# xmcd
#
# Track frame offsets:
#	150
#	15075
#	30865
#	45375
#	63000
#	79150
#	94775
#	110425
#	127375
#	144475
#	161550
#
# Disc length: 2336 seconds
#
# Revision: 2
# Processed by: cddbd v1.5.2PL0 Copyright (c) Steve Scherf et al.
# Submitted via: audiograbber 1.83.01
#
DISCID=7d091e0b
DTITLE=Thomas Katschnig - Everywhere man
DYEAR=1900
DGENRE=
TTITLE0=Canada, my country
TTITLE1=Young Rebels
TTITLE2=Comin´ home
TTITLE3=Hometown
TTITLE4=No heart at all
TTITLE5=Back to the roots
TTITLE6=Albert
TTITLE7=Stormrider
TTITLE8=Lac des Isles
TTITLE9=Good old times
TTITLE10=Everywhere man
EXTD=
EXTT0=
EXTT1=
EXTT2=
EXTT3=
EXTT4=
EXTT5=
EXTT6=
EXTT7=
EXTT8=
EXTT9=
EXTT10=
PLAYORDER=
